<?xml version="1.0" encoding="utf-8"?>
<!-- Generator: Adobe Illustrator 20.1.0, SVG Export Plug-In . SVG Version: 6.00 Build 0)  -->
<svg version="1.1" id="Layer_1" xmlns="http://www.w3.org/2000/svg" xmlns:xlink="http://www.w3.org/1999/xlink" x="0px" y="0px"
	 width="496px" height="330px" viewBox="0 0 496 330" style="enable-background:new 0 0 496 330;" xml:space="preserve">
<style type="text/css">
	.st0{fill:#FBBD13;}
	.st1{fill:#E91D27;}
</style>
<g>
	<circle class="st0" cx="251.3" cy="154.5" r="154.5"/>
	<path class="st1" d="M405,142.4c-7.2,2.5-14.1,6-21.1,9.1c-10.2,4.5-20.4,9.1-30.6,13.6c-15.6,7-31.2,13.7-46.7,20.9
		c-8.8,4.1-17.9,7.7-26.9,11.7c-12,5.3-23.9,10.8-35.9,16.1c-13.7,6.1-27.5,12.1-41.2,18.2c-15,6.7-30.1,13.4-45.1,20.1
		c-5,2.2-10,4.3-14.9,6.6c-1,0.5-2.2,0.7-2.8,1.9c-2.8,0-5,1.6-7.4,2.7C99.7,277.8,66.8,292.4,34,307c-5.4,2.4-5.5,2.4-6.8-3.1
		c-0.6-2.2-2.1-4.7-1.2-6.6c0.8-1.8,3.8-1.9,5.8-2.8c23.1-10.4,46.2-20.7,69.4-31.1c9-4,18.1-8.1,27.1-12.1c0.8-0.4,1.7-0.6,2.3-1.3
		c5.2-1.6,10-4.2,15-6.4c17.2-7.7,34.4-15.2,51.6-23c18.4-8.4,37-16.4,55.6-24.6c9.4-4.2,18.7-8.5,28.1-12.6
		c16.3-7.2,32.5-14.3,48.8-21.5c17.6-7.8,35.2-15.6,52.8-23.5c7.1-3.2,14.3-6.5,21.4-9.7c12.5-5.5,25-11.1,37.6-16.5
		c1.8-0.8,1.4-2,1.1-3.2c-1.9-8.2-3.9-16.3-5.9-24.5c-3.8-15.2-7.6-30.3-11.4-45.5c-0.3-1.3-0.8-2.5-1.1-3.8
		c-1.2-4.1-2.9-5.1-7.1-3.8c-1.2,0.4-2.3,1-3.5,1.3c-1.2,0.3-2.6,2.4-3.7,0.1c-1.6-3.4-1.2-5.1,1.1-6.1
		c14.7-6.5,29.4-13.1,44.1-19.4c5.4-2.3,11-3.7,17-3.8c13-0.1,22.4,8.8,23.3,21.9c1,14.8-6.2,25.3-17.8,33.3c-5,3.4-10.4,6-15.9,8.4
		c-1.6,0.7-1.9,1.5-1.5,3c2.3,9.2,4.7,18.3,6.9,27.5c0.6,2.5,1.7,2.7,3.8,1.6c3.1-1.5,6.3-2.8,9.4-4.3c1.8-0.9,2.5-0.3,2.9,1.5
		c0.5,2.5,1,5.1,1.8,7.5c0.7,1.9,0,2.6-1.7,3.4c-13.1,5.8-26.1,11.7-39.2,17.5c-12.1,5.4-24.2,10.7-36.3,16.1
		C406.7,141.3,405.9,141.9,405,142.4z M469.9,39.5c-0.2-4.4-1.2-8.7-2.9-12.9c-3.4-8.4-9.1-10.1-17.5-6.7c-1.4,0.6-1.8,1.4-1.4,2.9
		c0.9,3.1,1.6,6.3,2.4,9.5c2,8.1,4.1,16.3,6,24.4c0.4,1.8,1.1,1.9,2.6,1.2C466.2,54.9,470.5,47.6,469.9,39.5z"/>
	<path class="st1" d="M46.4,146.2c2.3,0.1,4.6,0.3,6.9,0c2.1-0.3,3.2-1.4,3.2-3.5c0-0.5,0.1-1.1,0-1.6c-0.7-3.5,0.7-5.5,4.2-6.6
		c1.8-0.6,2.3-0.1,2.7,1.4c1.9,7,3.8,14,5.7,21c1.5,5.4,2.8,10.8,4.4,16.1c0.6,1.8,0.2,2.7-1.6,3.4c-4.7,2-4.7,2-7-2.5
		c-5.4-10.9-15.5-17.4-26.5-16.3c-8.5,0.9-15.1,5-18.3,13.3c-3.1,7.7-0.2,13.7,7.6,16.6c5.9,2.1,12.2,2.2,18.3,2.7
		c8.7,0.8,17.3,1.6,25.6,4.3c12.7,4.2,19.3,13.6,20.7,26.3c2.3,21.2-9.8,40.2-30.3,49.2c-6.2,2.7-12.7,3.7-19.4,3.8
		c-1.1,0-2.1,0.1-3.2,0.1c-5.6-0.1-8.3,2.5-9.7,8.5c-0.4,1.6-4.7,4.9-6.3,4.6c-0.9-0.2-0.9-1-1-1.7c-3.2-12.9-6.5-25.9-9.7-38.9
		c-0.2-0.9-0.4-1.9-0.8-2.8c-1.1-2.6-0.3-3.9,2.4-4.8c3.4-1.2,3.3-1.4,5.1,2c3.6,6.9,7.9,13.1,14.8,17.3c12.1,7.4,28.2,4.3,35.3-6.9
		c1.2-2,2.2-4,2.7-6.3c2-8.4-1.9-14.8-10.2-17.3c-5.9-1.8-12-1.9-18.1-2.5c-8.1-0.8-16.2-1.5-23.9-4.5c-12.5-4.9-19.1-14.4-20-27.5
		C-1.7,166.8,20,144.9,46.4,146.2z"/>
	<path class="st1" d="M400.5,115.1c-3.6,0.8-6.7,2.7-9.9,4.2c-3.5,1.6-3.4,1.6-6.1-1.4c1.3,4.9-2.3,5-4.8,6.1
		c-5,2.3-10.1,4.5-15.2,6.8c-1.6,0.7-2.9,1-4.5-0.4c-8.3-6.7-16.8-13.2-25.2-19.7c-0.8-0.6-1.5-1.2-2.3-1.7
		c-0.8-0.5-1.5-0.2-2.2,0.2c-0.8,0.5-0.7,1.1-0.5,1.8c2.2,7.4,3.4,15,5.9,22.3c0.9,2.6,2.2,3.3,4.8,2.5c0.8-0.3,1.7-0.5,2.5-0.8
		c1.2-0.4,2.4-1.7,3.2,0.4c0.7,1.8,0.9,3.2-1.6,4.3c-10.8,4.6-21.4,9.5-32.1,14.3c-1,0.5-2.3,1.2-2.9-0.5c-0.4-1.3-1.7-3,0.6-4.1
		c1-0.4,1.9-0.9,2.8-1.4c3.3-2,4.3-4.2,3.4-8c-3-12-6-24-9-35.9c-1.5-6-3-12-4.5-18c-1-3.9-2.5-4.8-6.3-3.6
		c-0.6,0.2-1.1,0.5-1.7,0.6c-1,0.2-2.3,2.2-3-0.3c-0.5-1.7-1.3-3.2,1.2-4.3c11.2-4.9,22.4-10,33.6-14.8c5.7-2.4,11.4-4.8,17.7-4.9
		c8.5-0.2,15.3,6.1,16.9,14.6c1.7,9-1.2,16.5-7.9,22.6c-1.4,1.3-1.4,1.9,0.1,3.1c7.3,5.6,14.5,11.3,21.8,16.8
		c3.5,2.6,7.2,2.4,10.9-0.2c0.7-0.5,1.6-0.8,2.4-1.1c4.4-2.2,5.6-4.7,4.4-9.4c-2.1-8.4-4.1-16.8-6.2-25.2c-0.2-0.9-0.7-1.8-1.1-2.6
		c-0.3-4.4-1.9-8.6-2.9-12.9c-1.1-4.4-2.1-8.8-3.3-13.1c-0.9-3.4-2.6-4.2-5.9-3c-0.7,0.2-1.3,0.6-1.9,0.9c-2.9,1.3-2.9,1.2-3.7-1.9
		c-0.3-1.4,0.1-2,1.4-2.6c11.4-5,22.8-10.1,34.1-15.1c0.8-0.3,2-1.3,2.2,0.4c0.2,1.3,2,3-0.3,4.2c-1.2,0.6-2.4,1.1-3.6,1.7
		c-2.5,1.5-3.8,3.5-3.4,6.6c0.8,4.7,2.2,9.3,3.3,13.9c3.4,13.7,6.9,27.4,10.4,41.1c1.2,4.6,3.1,5.4,7.5,3.4c0.2-0.1,0.5-0.3,0.7-0.3
		c1,0,2.3-2,3,0.2c0.5,1.6,1.6,3.3-1.2,4.5c-6.7,2.8-13.2,5.8-19.8,8.8C401.7,114.3,401.1,114.7,400.5,115.1z M342.7,86.3
		c0.1-3.3-0.7-6.4-1.8-9.3c-2.2-5.9-6.4-7.9-12.4-6.2c-1.8,0.5-3.4,1.4-5.2,2c-2.2,0.7-2.7,2-2.1,4.2c2.1,8.1,4.1,16.2,6.1,24.4
		c0.4,1.7,1.4,1.3,2.4,0.9c2-0.9,3.9-2,5.8-3.1C340.2,96.2,342.9,92,342.7,86.3z"/>
	<path class="st1" d="M97.3,163c4.9-1.4,9.2-4,13.8-5.8c0.5-0.2,1-0.5,1.5-0.6c1-0.1,2.3-2,3-0.1c0.5,1.5,2.1,3.9-1.2,4.6
		c-0.3,0.1-0.6,0.4-0.9,0.6c-6.5,2.8-6,4.7-4.8,10.4c2.6,11.3,5.4,22.6,8.3,33.8c1.2,4.4,2.1,8.9,4,13.1c2.1,4.8,6.1,6.6,11.1,5
		c11-3.7,16.2-12.2,14.3-23.6c-1.8-11.1-5.1-22-7.8-32.9c-0.8-3.2-1.5-6.4-2.6-9.4c-1.4-3.9-3.9-4.7-7.8-3.2
		c-1.1,0.4-2.6,2.4-3.6-0.3c-0.7-2-0.6-3.4,1.8-4.4c7-2.9,13.8-6.2,20.7-9.2c0.9-0.4,2.3-1.8,3,0.3c0.6,1.5,1.3,3.1-0.9,4.3
		c-6.2,3.4-7,5.9-5.2,13c2.9,11.6,5.9,23.2,8.6,34.9c2,8.7,2.3,17.2-2.8,25.3c-4.1,6.5-9.7,10.8-16.4,14c-4.2,2-8.7,3.4-13.4,4
		c-9.9,0.1-16.3-4.6-19.5-14c-1.2-3.4-2-6.8-2.8-10.2c-2.9-11.2-5.6-22.4-8.5-33.6c-1.3-5-2.5-5.4-7.4-3.6c-0.9,0.3-2,2.1-3,0.2
		c-1.3-2.5-0.9-3.7,1.4-4.8c4.9-2.2,9.8-4.4,14.7-6.6C95.8,164,96.5,163.5,97.3,163z"/>
	<path class="st1" d="M301.8,65.8c0.1,0.8-0.1,1.2-0.9,1.7c-4.9,2.6-4.8,2.6-7.6-2.1c-2.1-3.5-3.9-7.2-7.5-9.7
		c-4.8-3.4-9.8-3.7-15-1.6c-2.4,1-4.7,2.1-7.1,3c-1.5,0.6-2.1,1.5-1.7,3.2c3.5,13.8,7,27.7,10.5,41.6c3.1,12.5,6.1,25,9.2,37.5
		c1,3.9,2.1,7.8,3.3,11.7c0.7,2.5,3,3.7,5.7,3.1c2.9-0.6,5.6-1.6,8.2-3c1.5-0.8,2.3-0.5,2.7,1.1c0,0.1,0.1,0.2,0.1,0.3
		c1.5,5.1,1.6,5.2-3.3,7.3c-11.4,5.1-22.8,10-34.1,15c-6,2.6-11.9,5.3-17.8,8.1c-1.8,0.9-2.7,0.9-3.3-1.5c-1.3-5.7-2-4.4,3.4-7.1
		c3.8-1.8,7.5-3.8,8.2-8.5c0.4-2.7-0.4-5.3-1.1-7.8c-3.6-14.8-7.4-29.5-11-44.2c-2.4-9.6-4.7-19.1-7-28.7c-1-4-2-8-3.1-12
		c-0.3-1-0.7-2-2-1.3c-4.5,2.1-9.1,3.9-12.8,7.3c-4.9,4.6-6.7,10.5-7.4,16.8c-0.3,3.1-0.1,6.2-0.1,9.3c0,1.9-4.3,5.2-6.2,4.7
		c-0.8-0.2-0.8-0.8-1-1.4c-1.5-6.2-3.1-12.5-4.6-18.7c-0.9-3.5-1.8-7.1-2.8-10.6c-1-3.5-0.8-3.8,2.4-5.2
		c17.4-7.7,34.8-15.5,52.1-23.2c13.5-6,27.1-11.9,40.6-18c1.7-0.8,2.5-0.6,3,1.3c2.5,10.2,5.1,20.3,7.6,30.5
		C301.7,65,301.7,65.4,301.8,65.8z"/>
	<path class="st1" d="M174.8,151.3c1.3,5.5,2.7,11.1,4,16.6c2,8.1,4.1,16.2,6.1,24.4c0.1,0.4,0.2,0.9,0.3,1.3
		c1.6,4.6,2.7,7.3,9.6,4.7c1.2-0.4,2.6-1.3,3.3,0.9c0.6,1.8,0.5,2.9-1.4,3.8c-7.6,3.3-15.2,6.5-22.6,10.3c-1.2,0.6-2.3,0.1-2.6-0.8
		c-0.4-1.1-1.1-2.6,0.3-3.6c0.9-0.7,1.9-1.2,2.9-1.8c3.8-2.4,5.2-5.3,4.2-9.7c-1.8-7.9-3.7-15.8-5.7-23.7
		c-2.2-8.8-4.4-17.7-6.6-26.5c-1.1-4.4-5-6.3-9.4-5c-1,0.3-2.5,1.8-3-0.3c-0.3-1.5-1.8-3.4,1.4-4.6c7.1-2.7,13.9-6,20.8-9.2
		c2-0.9,3.3-0.7,5,0.4c7,4.9,14.1,9.6,21.2,14.5c5.1,3.5,10.2,6.9,15.2,10.4c0.7,0.5,1.5,1.4,2.3,0.9c0.7-0.6,0.2-1.6,0-2.5
		c-2.2-8.7-4.4-17.4-6.6-26.2c-1.3-5-4.4-6.4-9.2-4.5c-0.9,0.4-2.2,1.6-2.8-0.3c-0.5-1.6-1.6-3.3,1-4.4c6.9-2.9,13.7-6,20.6-9
		c1-0.4,2.1-1.3,2.7,0.2c0.5,1.3,1.6,3-0.3,4.2c-0.4,0.3-0.9,0.6-1.3,0.9c-4.3,3-5.4,5.5-4.1,10.7c2.1,8.5,4.2,17,6.3,25.5
		c2.8,11.1,5.6,22.3,8.4,33.4c0.2,0.9,0.5,1.7,0.7,2.5c0.2,1.1,0.7,2.2-0.6,3.1c-1.4,0.9-2.6,1-3.9,0.1c-5.6-3.8-11.3-7.5-16.9-11.3
		c-12.5-8.3-25-16.5-37.5-24.8C176.1,151.5,175.7,151,174.8,151.3z"/>
	<path class="st0" d="M342.7,86.3c0.2,5.7-2.5,9.9-7.3,12.8c-1.9,1.1-3.8,2.2-5.8,3.1c-0.9,0.4-1.9,0.9-2.4-0.9
		c-2-8.1-4-16.3-6.1-24.4c-0.6-2.2-0.1-3.5,2.1-4.2c1.8-0.6,3.4-1.5,5.2-2c6-1.8,10.2,0.3,12.4,6.2C342,79.9,342.7,83,342.7,86.3z"
		/>
	<path class="st0" d="M396.3,166.6c0.1-0.6-0.2-1.7,0.9-1.6c1,0.1,1.4,1.1,1.5,1.9c0.1,0.9-0.6,1.2-1.3,1.3
		C396,168.4,396.5,167.3,396.3,166.6z"/>
	<path class="st0" d="M157.9,271.4c0.9,0.4,1.6,1,1.8,1.9c0.2,1-0.8,1.2-1.5,1.4c-1,0.2-0.9-0.6-0.8-1.1
		C157.4,272.8,157,271.9,157.9,271.4z"/>
</g>
<g>
	<path class="st1" d="M45.4,320.9l-0.3-10.3l5.4-2.4l0.2,0.4l-0.4,0.2c-0.4,0.2-0.7,0.4-0.8,0.6c-0.1,0.2-0.2,0.4-0.2,0.6
		c0,0.2,0.1,0.6,0.4,1.3l3.9,8.7c0.3,0.7,0.5,1.1,0.7,1.2c0.1,0.1,0.4,0.2,0.6,0.2c0.3,0,0.6,0,1-0.2l0.4-0.2l0.2,0.4l-6.9,3
		l-0.2-0.4l0.4-0.2c0.4-0.2,0.7-0.4,0.8-0.6c0.1-0.2,0.2-0.4,0.2-0.6c0-0.2-0.1-0.6-0.4-1.3l-4.3-9.8l0.3,14.3l-0.2,0.1l-10.4-9.7
		l4.1,9.3c0.3,0.6,0.5,1,0.6,1.2c0.2,0.3,0.5,0.5,0.9,0.5c0.4,0.1,0.9,0,1.5-0.3l0.2,0.4l-4.5,2l-0.2-0.4l0.1-0.1
		c0.3-0.1,0.5-0.3,0.8-0.5c0.2-0.2,0.3-0.4,0.4-0.7c0.1-0.2,0.1-0.5,0-0.8c0-0.1-0.2-0.4-0.4-1l-3.7-8.3c-0.3-0.7-0.5-1.1-0.7-1.2
		c-0.1-0.1-0.4-0.2-0.6-0.2s-0.6,0-1,0.2l-0.4,0.2l-0.2-0.4l5.4-2.4L45.4,320.9z"/>
	<path class="st1" d="M61.4,304.3l2.4,5.4l0.3-0.1c0.8-0.4,1.3-0.9,1.5-1.6c0.1-0.7,0-1.6-0.3-2.6l0.4-0.2l3.1,6.9l-0.4,0.2
		c-0.4-0.7-0.8-1.3-1.3-1.6c-0.5-0.4-0.9-0.6-1.3-0.6c-0.4,0-0.9,0.1-1.5,0.4l1.6,3.7c0.3,0.7,0.5,1.2,0.7,1.3s0.3,0.2,0.5,0.2
		c0.2,0,0.5,0,0.9-0.2l0.8-0.3c1.2-0.5,2.1-1.3,2.6-2.2c0.5-0.9,0.6-2,0.4-3.3l0.4-0.2l1.3,4.5l-11.4,5l-0.2-0.4l0.4-0.2
		c0.4-0.2,0.7-0.4,0.8-0.6c0.1-0.2,0.2-0.4,0.2-0.6c0-0.2-0.1-0.6-0.4-1.3l-3.8-8.7c-0.3-0.6-0.4-1-0.5-1.1
		c-0.2-0.2-0.4-0.3-0.6-0.4c-0.3-0.1-0.7,0-1.1,0.2l-0.4,0.2l-0.2-0.4l11-4.9l1.7,3.9l-0.4,0.2c-0.6-0.9-1.2-1.4-1.7-1.7
		c-0.5-0.3-1.1-0.4-1.8-0.3c-0.4,0-1.1,0.3-2.1,0.7L61.4,304.3z"/>
	<path class="st1" d="M79.8,311l-0.2-0.4l0.4-0.2c0.4-0.2,0.6-0.4,0.8-0.6c0.2-0.2,0.2-0.4,0.2-0.7c0-0.2-0.2-0.6-0.5-1.3l-3.8-8.7
		c-0.3-0.7-0.5-1.1-0.7-1.2c-0.1-0.1-0.4-0.2-0.6-0.3c-0.3,0-0.6,0-1,0.2l-0.4,0.2l-0.2-0.4l5.9-2.6c1.6-0.7,2.9-1,4.1-1
		c1.4,0,2.6,0.4,3.7,1.2c1.1,0.8,1.9,1.9,2.5,3.2c0.4,0.9,0.6,1.8,0.7,2.8c0,0.9-0.1,1.7-0.3,2.4c-0.2,0.7-0.6,1.4-1.1,2
		c-0.5,0.6-1.1,1.2-2,1.7c-0.4,0.3-1,0.6-1.8,0.9L79.8,311z M79.3,296.4l4.6,10.3c0.2,0.5,0.4,0.9,0.5,1c0.1,0.1,0.2,0.2,0.4,0.2
		c0.2,0,0.5,0,0.8-0.2c1.1-0.5,1.7-1.2,2-2.2c0.3-1.3,0-3.1-0.9-5.2c-0.8-1.7-1.6-2.9-2.6-3.7c-0.8-0.6-1.6-0.9-2.3-0.9
		C81.2,295.6,80.4,295.9,79.3,296.4z"/>
	<path class="st1" d="M145.6,266.1l0.2,0.4c-0.4,0.3-0.8,0.7-0.9,1.3c-0.1,0.4-0.2,1.4-0.2,2.8l-0.1,12.1l-0.3,0.1l-9.2-8.5
		c-1.1-1-1.8-1.6-2.1-1.7c-0.3-0.1-0.7-0.1-1.2,0l-0.2-0.4l6.3-2.8l0.2,0.4l-0.2,0.1c-0.6,0.3-0.9,0.5-1.1,0.7
		c-0.1,0.2-0.1,0.3,0,0.5c0.1,0.1,0.1,0.2,0.3,0.4c0.1,0.1,0.5,0.5,1.1,1l5.7,5.3l0-7c0-0.8,0-1.4-0.1-1.7c0-0.3-0.1-0.5-0.2-0.7
		c-0.1-0.2-0.2-0.3-0.4-0.4c-0.2-0.1-0.4-0.1-0.6-0.1c-0.3,0-0.7,0.1-1.2,0.3l-0.2-0.4L145.6,266.1z"/>
	<path class="st1" d="M154.2,257.6c0.4-0.2,0.7-0.2,1.1,0c0.4,0.1,0.6,0.4,0.8,0.7c0.2,0.4,0.2,0.7,0,1.1c-0.1,0.4-0.4,0.6-0.7,0.8
		c-0.4,0.2-0.7,0.2-1.1,0c-0.4-0.1-0.6-0.4-0.8-0.7c-0.2-0.4-0.2-0.7,0-1.1C153.6,258,153.9,257.7,154.2,257.6z M163.1,269.6
		l-4.7,2.1l0,1.5c0,0.5,0.1,0.9,0.2,1.2c0.2,0.4,0.4,0.6,0.8,0.6c0.2,0,0.7-0.1,1.4-0.3l0.2,0.4l-4.4,1.9l-0.2-0.4
		c0.4-0.3,0.7-0.6,0.9-1.1s0.2-1.3,0.2-2.5l0.1-12.6l0.2-0.1l9.5,8.7c0.9,0.8,1.6,1.3,2,1.4c0.3,0.1,0.7,0.1,1.1-0.1l0.2,0.4
		l-6.4,2.8l-0.2-0.4l0.3-0.1c0.5-0.2,0.8-0.5,1-0.7c0.1-0.2,0.1-0.3,0-0.5c-0.1-0.1-0.1-0.2-0.2-0.3c0-0.1-0.2-0.3-0.6-0.6
		L163.1,269.6z M157.9,256c0.4-0.2,0.7-0.2,1.1,0c0.4,0.1,0.6,0.4,0.8,0.7c0.2,0.4,0.2,0.7,0,1.1c-0.1,0.4-0.4,0.6-0.7,0.8
		c-0.4,0.2-0.7,0.2-1.1,0c-0.4-0.1-0.6-0.4-0.8-0.7c-0.2-0.4-0.2-0.7,0-1.1C157.3,256.4,157.5,256.1,157.9,256z M162.4,269l-4-3.7
		l0,5.4L162.4,269z"/>
	<path class="st1" d="M178.2,260.2l1.6,3.7c0.3,0.7,0.6,1.1,0.7,1.3c0.2,0.1,0.4,0.2,0.7,0.2c0.3,0,0.7-0.1,1.3-0.4l0.2,0.4l-6.7,3
		l-0.2-0.4c0.6-0.3,1-0.5,1.2-0.7c0.2-0.2,0.3-0.4,0.3-0.6c0-0.2-0.1-0.7-0.5-1.4l-3.8-8.5c-0.3-0.7-0.6-1.1-0.7-1.3
		c-0.2-0.1-0.4-0.2-0.7-0.2c-0.3,0-0.7,0.1-1.3,0.4l-0.2-0.4l6.1-2.7c1.6-0.7,2.8-1.1,3.6-1.2c0.8-0.1,1.6,0,2.3,0.4
		c0.7,0.4,1.3,1,1.6,1.8c0.4,1,0.4,1.9,0,2.9c-0.3,0.6-0.8,1.2-1.5,1.7l5.1,3.1c0.7,0.4,1.1,0.6,1.4,0.7c0.4,0.1,0.7,0.1,1.1-0.1
		l0.2,0.4l-4.1,1.8l-6.9-4.1L178.2,260.2z M175.4,253.7l2.6,5.8l0.6-0.2c0.9-0.4,1.5-0.8,1.9-1.1c0.4-0.4,0.6-0.8,0.7-1.4
		c0.1-0.5-0.1-1.2-0.4-1.9c-0.4-1-1-1.6-1.7-1.9c-0.7-0.3-1.5-0.2-2.6,0.3L175.4,253.7z"/>
	<path class="st1" d="M202.2,251.3l-0.3-10.3l5.4-2.4l0.2,0.4l-0.4,0.2c-0.4,0.2-0.7,0.4-0.8,0.6c-0.1,0.2-0.2,0.4-0.2,0.6
		c0,0.2,0.1,0.6,0.4,1.3l3.9,8.7c0.3,0.7,0.5,1.1,0.7,1.2c0.1,0.1,0.4,0.2,0.6,0.2s0.6,0,1-0.2l0.4-0.2l0.2,0.4l-6.9,3l-0.2-0.4
		l0.4-0.2c0.4-0.2,0.7-0.4,0.8-0.6c0.1-0.2,0.2-0.4,0.2-0.6c0-0.2-0.1-0.6-0.4-1.3l-4.3-9.8l0.3,14.3l-0.2,0.1l-10.4-9.7l4.1,9.3
		c0.3,0.6,0.5,1,0.6,1.2c0.2,0.3,0.5,0.5,0.9,0.5c0.4,0.1,0.9,0,1.5-0.3l0.2,0.4l-4.5,2l-0.2-0.4l0.1-0.1c0.3-0.1,0.5-0.3,0.8-0.5
		c0.2-0.2,0.3-0.4,0.4-0.7c0.1-0.2,0.1-0.5,0-0.8c0-0.1-0.2-0.4-0.4-1l-3.7-8.3c-0.3-0.7-0.5-1.1-0.7-1.2c-0.1-0.1-0.4-0.2-0.6-0.2
		c-0.3,0-0.6,0-1,0.2l-0.4,0.2l-0.2-0.4l5.4-2.4L202.2,251.3z"/>
	<path class="st1" d="M218.2,234.8l2.4,5.4l0.3-0.1c0.8-0.4,1.3-0.9,1.5-1.6c0.1-0.7,0-1.6-0.3-2.6l0.4-0.2l3.1,6.9l-0.4,0.2
		c-0.4-0.7-0.8-1.3-1.3-1.6c-0.5-0.4-0.9-0.6-1.3-0.6c-0.4,0-0.9,0.1-1.5,0.4l1.6,3.7c0.3,0.7,0.5,1.2,0.7,1.3
		c0.1,0.1,0.3,0.2,0.5,0.2c0.2,0,0.5,0,0.9-0.2l0.8-0.3c1.2-0.5,2.1-1.3,2.6-2.2c0.5-0.9,0.6-2,0.4-3.3l0.4-0.2l1.3,4.5l-11.4,5
		l-0.2-0.4l0.4-0.2c0.4-0.2,0.7-0.4,0.8-0.6c0.1-0.2,0.2-0.4,0.2-0.6c0-0.2-0.1-0.6-0.4-1.3l-3.8-8.7c-0.3-0.6-0.4-1-0.5-1.1
		c-0.2-0.2-0.4-0.3-0.6-0.4c-0.3-0.1-0.7,0-1.1,0.2l-0.4,0.2l-0.2-0.4l11-4.9l1.7,3.9l-0.4,0.2c-0.6-0.9-1.2-1.4-1.7-1.7
		c-0.5-0.3-1.1-0.4-1.8-0.3c-0.4,0-1.1,0.3-2.1,0.7L218.2,234.8z"/>
	<path class="st1" d="M281.7,205.7l1.6,3.6l-0.4,0.2c-0.6-0.7-1.1-1.2-1.5-1.5c-0.4-0.2-0.9-0.4-1.4-0.4c-0.3,0-0.8,0.1-1.4,0.4
		l-1,0.4l4.5,10.2c0.3,0.7,0.5,1.1,0.7,1.2c0.1,0.1,0.4,0.2,0.6,0.2c0.3,0,0.6,0,1-0.2l0.4-0.2l0.2,0.4l-6.9,3.1l-0.2-0.4l0.4-0.2
		c0.4-0.2,0.7-0.4,0.8-0.6c0.1-0.2,0.2-0.4,0.2-0.6c0-0.2-0.1-0.6-0.4-1.3l-4.5-10.2l-1,0.4c-0.9,0.4-1.4,0.9-1.7,1.4
		c-0.3,0.8-0.4,1.7-0.1,2.7l-0.4,0.2l-1.6-3.6L281.7,205.7z"/>
	<path class="st1" d="M300.1,212.9l0.2,0.4l-6.9,3.1l-0.2-0.4l0.4-0.2c0.4-0.2,0.7-0.4,0.8-0.6c0.1-0.2,0.2-0.4,0.2-0.6
		c0-0.2-0.1-0.6-0.4-1.3l-3.8-8.7c-0.3-0.7-0.5-1.1-0.7-1.2c-0.1-0.1-0.4-0.2-0.6-0.3c-0.3,0-0.6,0-1,0.2l-0.4,0.2l-0.2-0.4l6.9-3.1
		l0.2,0.4l-0.4,0.2c-0.4,0.2-0.7,0.4-0.8,0.6c-0.1,0.2-0.2,0.4-0.2,0.6c0,0.2,0.1,0.6,0.4,1.3l3.8,8.7c0.3,0.7,0.5,1.1,0.7,1.2
		c0.1,0.1,0.4,0.2,0.6,0.2c0.3,0,0.6,0,1-0.2L300.1,212.9z"/>
	<path class="st1" d="M316,200.7l1.6,4.8l-11.7,5.2l-0.2-0.4l0.4-0.2c0.4-0.2,0.7-0.4,0.8-0.6c0.1-0.2,0.2-0.4,0.2-0.6
		c0-0.2-0.1-0.6-0.4-1.3l-3.8-8.7c-0.3-0.7-0.5-1.1-0.7-1.2c-0.1-0.1-0.4-0.2-0.6-0.3c-0.3,0-0.6,0-1,0.2l-0.4,0.2l-0.2-0.4l7-3.1
		l0.2,0.4l-0.6,0.3c-0.4,0.2-0.7,0.4-0.8,0.6c-0.1,0.2-0.2,0.4-0.2,0.6c0,0.2,0.1,0.6,0.4,1.3l3.7,8.4c0.3,0.7,0.5,1.1,0.7,1.2
		c0.2,0.1,0.4,0.2,0.6,0.2c0.2,0,0.6-0.2,1.2-0.4l1.1-0.5c0.7-0.3,1.2-0.7,1.6-1.1c0.4-0.5,0.6-1,0.7-1.7c0.1-0.7,0.1-1.6-0.1-2.8
		L316,200.7z"/>
	<path class="st1" d="M334.1,192.7l1.6,4.8l-11.7,5.2l-0.2-0.4l0.4-0.2c0.4-0.2,0.7-0.4,0.8-0.6c0.1-0.2,0.2-0.4,0.2-0.6
		c0-0.2-0.1-0.6-0.4-1.3l-3.8-8.7c-0.3-0.7-0.5-1.1-0.7-1.2c-0.1-0.1-0.4-0.2-0.6-0.3c-0.3,0-0.6,0-1,0.2l-0.4,0.2l-0.2-0.4l7-3.1
		l0.2,0.4l-0.6,0.3c-0.4,0.2-0.7,0.4-0.8,0.6c-0.1,0.2-0.2,0.4-0.2,0.6c0,0.2,0.1,0.6,0.4,1.3l3.7,8.4c0.3,0.7,0.5,1.1,0.7,1.2
		c0.2,0.1,0.4,0.2,0.6,0.2c0.2,0,0.6-0.2,1.2-0.4l1.1-0.5c0.7-0.3,1.2-0.7,1.6-1.1c0.4-0.5,0.6-1,0.7-1.7c0.1-0.7,0.1-1.6-0.1-2.8
		L334.1,192.7z"/>
	<path class="st1" d="M387.5,158.8l0.2,0.4c-0.4,0.3-0.8,0.7-0.9,1.3c-0.1,0.4-0.2,1.4-0.2,2.8l-0.1,12.1l-0.3,0.1l-9.2-8.5
		c-1.1-1-1.8-1.6-2.1-1.7c-0.3-0.1-0.7-0.1-1.2,0l-0.2-0.4l6.3-2.8l0.2,0.4l-0.2,0.1c-0.6,0.3-0.9,0.5-1.1,0.7
		c-0.1,0.2-0.1,0.3,0,0.5c0.1,0.1,0.1,0.2,0.3,0.4c0.1,0.1,0.5,0.5,1.1,1l5.7,5.3l0-7c0-0.8,0-1.4-0.1-1.7c0-0.3-0.1-0.5-0.2-0.7
		c-0.1-0.2-0.2-0.3-0.4-0.4c-0.2-0.1-0.4-0.1-0.6-0.1c-0.3,0-0.7,0.1-1.2,0.3l-0.2-0.4L387.5,158.8z"/>
	<path class="st1" d="M396.1,150.4c0.4-0.2,0.7-0.2,1.1,0c0.4,0.1,0.6,0.4,0.8,0.7c0.2,0.4,0.2,0.7,0,1.1c-0.1,0.4-0.4,0.6-0.7,0.8
		c-0.4,0.2-0.7,0.2-1.1,0c-0.4-0.1-0.6-0.4-0.8-0.7c-0.2-0.4-0.2-0.7,0-1.1C395.5,150.8,395.7,150.5,396.1,150.4z M404.9,162.4
		l-4.7,2.1l0,1.5c0,0.5,0.1,0.9,0.2,1.2c0.2,0.4,0.4,0.6,0.8,0.6c0.2,0,0.7-0.1,1.4-0.3l0.2,0.4l-4.4,1.9l-0.2-0.4
		c0.4-0.3,0.7-0.6,0.9-1.1s0.2-1.3,0.2-2.5l0.1-12.6l0.2-0.1l9.5,8.7c0.9,0.8,1.6,1.3,2,1.4c0.3,0.1,0.7,0.1,1.1-0.1l0.2,0.4
		l-6.4,2.8l-0.2-0.4l0.3-0.1c0.5-0.2,0.8-0.5,1-0.7c0.1-0.2,0.1-0.3,0-0.5c-0.1-0.1-0.1-0.2-0.2-0.3c0-0.1-0.2-0.3-0.6-0.6
		L404.9,162.4z M399.7,148.7c0.4-0.2,0.7-0.2,1.1,0c0.4,0.1,0.6,0.4,0.8,0.7c0.2,0.4,0.2,0.7,0,1.1c-0.1,0.4-0.4,0.6-0.7,0.8
		c-0.4,0.2-0.7,0.2-1.1,0c-0.4-0.1-0.6-0.4-0.8-0.7c-0.2-0.4-0.2-0.7,0-1.1C399.1,149.2,399.3,148.9,399.7,148.7z M404.2,161.8
		l-4-3.7l0,5.4L404.2,161.8z"/>
	<path class="st1" d="M420,153l1.6,3.7c0.3,0.7,0.6,1.1,0.7,1.3s0.4,0.2,0.7,0.2c0.3,0,0.7-0.1,1.3-0.4l0.2,0.4l-6.7,3l-0.2-0.4
		c0.6-0.3,1-0.5,1.2-0.7c0.2-0.2,0.3-0.4,0.3-0.6c0-0.2-0.1-0.7-0.5-1.4l-3.8-8.5c-0.3-0.7-0.6-1.1-0.7-1.3
		c-0.2-0.1-0.4-0.2-0.7-0.2c-0.3,0-0.7,0.1-1.3,0.4l-0.2-0.4l6.1-2.7c1.6-0.7,2.8-1.1,3.6-1.2c0.8-0.1,1.6,0,2.3,0.4
		c0.7,0.4,1.3,1,1.6,1.8c0.4,1,0.4,1.9,0,2.9c-0.3,0.6-0.8,1.2-1.5,1.7l5.1,3.1c0.7,0.4,1.1,0.6,1.4,0.7c0.4,0.1,0.7,0.1,1.1-0.1
		l0.2,0.4l-4.1,1.8l-6.9-4.1L420,153z M417.2,146.5l2.6,5.8l0.6-0.2c0.9-0.4,1.5-0.8,1.9-1.1c0.4-0.4,0.6-0.8,0.7-1.4
		c0.1-0.5-0.1-1.2-0.4-1.9c-0.4-1-1-1.6-1.7-1.9c-0.7-0.3-1.5-0.2-2.6,0.3L417.2,146.5z"/>
	<path class="st1" d="M444.1,144.1l-0.3-10.3l5.4-2.4l0.2,0.4l-0.4,0.2c-0.4,0.2-0.7,0.4-0.8,0.6c-0.1,0.2-0.2,0.4-0.2,0.6
		c0,0.2,0.1,0.6,0.4,1.3l3.9,8.7c0.3,0.7,0.5,1.1,0.7,1.2c0.1,0.1,0.4,0.2,0.6,0.2s0.6,0,1-0.2l0.4-0.2l0.2,0.4l-6.9,3l-0.2-0.4
		l0.4-0.2c0.4-0.2,0.7-0.4,0.8-0.6c0.1-0.2,0.2-0.4,0.2-0.6c0-0.2-0.1-0.6-0.4-1.3l-4.3-9.8l0.3,14.3l-0.2,0.1l-10.4-9.7l4.1,9.3
		c0.3,0.6,0.5,1,0.6,1.2c0.2,0.3,0.5,0.5,0.9,0.5c0.4,0.1,0.9,0,1.5-0.3l0.2,0.4l-4.5,2l-0.2-0.4l0.1-0.1c0.3-0.1,0.5-0.3,0.8-0.5
		c0.2-0.2,0.3-0.4,0.4-0.7c0.1-0.2,0-0.5,0-0.8c0-0.1-0.2-0.4-0.4-1l-3.7-8.3c-0.3-0.7-0.5-1.1-0.7-1.2c-0.1-0.1-0.4-0.2-0.6-0.2
		c-0.3,0-0.6,0-1,0.2l-0.4,0.2l-0.2-0.4l5.4-2.4L444.1,144.1z"/>
	<path class="st1" d="M460,127.6l2.4,5.4l0.3-0.1c0.8-0.4,1.3-0.9,1.5-1.6c0.1-0.7,0-1.6-0.3-2.6l0.4-0.2l3.1,6.9l-0.4,0.2
		c-0.4-0.7-0.8-1.3-1.3-1.6c-0.5-0.4-0.9-0.6-1.3-0.6s-0.9,0.1-1.5,0.4l1.6,3.7c0.3,0.7,0.5,1.2,0.7,1.3c0.1,0.1,0.3,0.2,0.5,0.2
		c0.2,0,0.5,0,0.9-0.2l0.8-0.3c1.2-0.5,2.1-1.3,2.6-2.2c0.5-0.9,0.6-2,0.4-3.3l0.4-0.2l1.3,4.5l-11.4,5l-0.2-0.4l0.4-0.2
		c0.4-0.2,0.7-0.4,0.8-0.6c0.1-0.2,0.2-0.4,0.2-0.6c0-0.2-0.1-0.6-0.4-1.3l-3.8-8.7c-0.3-0.6-0.4-1-0.5-1.1
		c-0.2-0.2-0.4-0.3-0.6-0.4c-0.3-0.1-0.7,0-1.1,0.2l-0.4,0.2l-0.2-0.4l11-4.9l1.7,3.9l-0.4,0.2c-0.6-0.9-1.2-1.4-1.7-1.7
		c-0.5-0.3-1.1-0.4-1.8-0.3c-0.4,0-1.1,0.3-2.1,0.7L460,127.6z"/>
	<path class="st1" d="M477.3,119l10.1,5.3l-2.5-5.7c-0.4-0.8-0.7-1.3-1.1-1.5c-0.5-0.2-1.1-0.2-1.8,0.2l-0.2-0.4l4.4-1.9l0.2,0.4
		c-0.5,0.3-0.9,0.6-1,0.8c-0.1,0.2-0.2,0.4-0.2,0.8c0,0.3,0.1,0.8,0.4,1.4l4.9,11l-0.3,0.1l-13.8-7l3.7,8.4c0.3,0.8,0.7,1.2,1.2,1.3
		c0.5,0.1,0.9,0.1,1.4-0.1l0.3-0.1l0.2,0.4l-4.7,2.1l-0.2-0.4c0.7-0.3,1.2-0.7,1.3-1.1c0.2-0.4,0.1-1-0.2-1.7l-4.1-9.3l-0.4-0.2
		c-0.4-0.2-0.8-0.3-1-0.4c-0.3,0-0.6,0.1-1,0.2l-0.2-0.4L477.3,119z"/>
</g>
</svg>
